<?xml version="1.0" encoding="UTF-8" standalone="no"?>
<!-- Created with Inkscape (http://www.inkscape.org/) -->

<svg
   xmlns:dc="http://purl.org/dc/elements/1.1/"
   xmlns:cc="http://creativecommons.org/ns#"
   xmlns:rdf="http://www.w3.org/1999/02/22-rdf-syntax-ns#"
   xmlns:svg="http://www.w3.org/2000/svg"
   xmlns="http://www.w3.org/2000/svg"
   xmlns:sodipodi="http://sodipodi.sourceforge.net/DTD/sodipodi-0.dtd"
   xmlns:inkscape="http://www.inkscape.org/namespaces/inkscape"
   width="250"
   height="250"
   id="svg2"
   version="1.1"
   inkscape:version="0.48.5 r10040"
   sodipodi:docname="drawing.svg">
  <defs
     id="defs4" />
  <sodipodi:namedview
     id="base"
     pagecolor="#ffffff"
     bordercolor="#666666"
     borderopacity="1.0"
     inkscape:pageopacity="0.0"
     inkscape:pageshadow="2"
     inkscape:zoom="0.85179143"
     inkscape:cx="14.07676"
     inkscape:cy="16.571095"
     inkscape:document-units="px"
     inkscape:current-layer="g2996"
     showgrid="false"
     inkscape:window-width="1366"
     inkscape:window-height="705"
     inkscape:window-x="-8"
     inkscape:window-y="-8"
     inkscape:window-maximized="1" />
  <metadata
     id="metadata7">
    <rdf:RDF>
      <cc:Work
         rdf:about="">
        <dc:format>image/svg+xml</dc:format>
        <dc:type
           rdf:resource="http://purl.org/dc/dcmitype/StillImage" />
        <dc:title></dc:title>
      </cc:Work>
    </rdf:RDF>
  </metadata>
  <g
     inkscape:label="Layer 1"
     inkscape:groupmode="layer"
     id="layer1"
     transform="translate(0,-802.36217)">
    <g
       id="g2996"
       transform="matrix(1.1583482,0,0,1.1583482,-270.1166,475.6233)"
       style="fill:#aaaaaa;fill-opacity:1;opacity:1;stroke:none;stroke-opacity:1">
      <g
         id="g3887"
         transform="translate(-10.848177,-252.85232)">
        <path
           style="fill:#aaaaaa;fill-opacity:1;stroke:none"
           d="m 339.99222,747.09725 c -40.64525,-4.87421 -76.83366,-35.69878 -87.27486,-75.41892 -10.19571,-35.75892 0.35549,-76.75643 27.64974,-102.26989 28.79909,-29.65309 76.07703,-37.82876 113.68378,-21.29119 42.39746,17.30816 69.39218,65.27044 61.89848,110.46947 -5.28705,41.17214 -37.72713,76.9276 -78.18126,86.19361 -12.327,2.94067 -25.18379,4.30268 -37.77588,2.31692 z m 39,-5.80826 c 37.8819,-10.25344 69.17992,-44.29928 73.70263,-83.61221 0.0813,-16.14951 2.05115,-33.07267 -4.74869,-48.27792 -14.27308,-40.32702 -55.90153,-69.17326 -98.82828,-66.98073 -45.28918,1.02067 -86.69757,36.26955 -95.3866,80.6496 -9.33219,41.17706 11.29963,86.20931 47.53273,107.34327 16.28317,9.72072 35.28556,15.10251 54.32108,13.51653 7.83642,-0.33041 15.76585,-0.74548 23.40713,-2.63854 z m -14.5,-10.73135 c 3.62685,-13.82553 10.65606,-27.25286 10.22294,-41.82278 -7.81731,-8.69578 -18.6726,6.43939 -18.16112,15.39183 -3.00265,9.38961 -5.58464,21.93599 -15.55503,26.08445 1.63655,-10.32641 10.29886,-20.26779 11.42038,-31.53719 3.24926,-14.64977 2.10645,-31.32779 12.99955,-43.12455 11.17009,-8.17619 4.88456,-20.6108 0.22074,-30.59001 -10.90561,-24.48082 -33.67802,-41.13507 -45.5197,-64.96999 4.34648,-8.29751 15.27542,7.58319 19.37965,12.4035 16.2745,21.80987 30.95093,45.4388 39.06916,71.58324 8.95492,0.38818 20.4956,0.88489 23.54545,11.30218 5.21459,17.21405 -0.78031,35.23623 -5.3212,51.93339 -3.21721,7.27348 -4.37754,20.18045 -10.75157,23.18988 1.29251,-14.93288 9.67356,-28.81464 9.15782,-44.0687 -4.57625,-9.44684 -17.64821,-2.02359 -15.17298,7.72452 -2.62661,12.31014 -4.21804,25.71545 -11.73809,36.15496 -0.89904,0.83297 -2.84601,1.5102 -3.796,0.34527 z m 0.61773,-48.47334 c 9.20219,-4.61297 19.59863,-4.89305 29.65179,-5.06313 8.36669,-3.85754 5.88334,-20.60561 -1.12726,-25.75854 -14.34813,-5.51352 -29.60153,6.791 -34.05373,20.18062 -2.66836,5.06559 -3.51408,17.22872 5.5292,10.64105 z"
           id="path3020"
           inkscape:connector-curvature="0" />
        <path
           style="fill:#aaaaaa;fill-opacity:1;stroke:none"
           d="m 338.9652,748.16079 c -36.9207,-4.38868 -70.84478,-29.54351 -84.25508,-64.47485 -13.4492,-31.05247 -9.04381,-68.19793 9.56026,-96.19574 24.85446,-39.02591 77.96426,-57.3799 121.35752,-40.64391 30.79643,10.54124 55.33574,36.42239 64.70116,67.53386 15.25878,45.46469 -7.29212,99.30763 -49.47689,121.5687 -18.70773,9.92874 -40.74823,15.08576 -61.88697,12.21194 z m 39.93836,-6.31551 c 36.80212,-10.7252 66.73838,-43.77188 71.71183,-82.03648 1.77466,-19.60827 1.23855,-40.26321 -8.26926,-58.03129 -17.58966,-39.1939 -62.59071,-64.16038 -105.16326,-57.47696 -44.04769,5.07336 -81.5424,42.803 -86.68866,86.78098 -6.44969,41.25738 16.75759,84.56595 53.82888,103.3122 14.23163,7.59945 30.30362,11.68593 46.47163,10.49094 9.42962,-0.22445 19.06493,0.0867 28.10884,-3.03939 z m -16.42978,-10.34237 c 3.91616,-13.75207 10.76864,-27.2486 10.45894,-41.81269 -2.82345,-6.06786 -11.36642,-0.46396 -15.2065,1.93581 -3.36056,13.23891 -5.97787,27.65545 -15.49465,37.97954 -7.74152,3.91915 2.98999,-10.80213 3.52519,-14.34262 7.38696,-15.37757 5.33627,-33.14132 11.44725,-48.8097 3.40439,-9.76358 17.85351,-16.95672 11.25082,-28.45269 -8.37176,-28.86414 -32.80181,-48.22074 -48.46923,-72.75673 -5.5613,-14.25142 12.04467,-0.86016 14.72014,4.92855 16.85164,21.60811 31.78592,45.28978 40.5902,71.37547 5.34693,8.33239 22.54429,1.50919 24.89665,15.42049 4.77068,20.70917 -2.38087,41.81715 -8.95376,61.32702 -0.0944,4.10271 -8.33099,19.8539 -6.93714,8.10216 3.96287,-12.31409 7.72579,-24.80937 9.70007,-37.6049 -1.67136,-9.0175 -18.33495,-7.2321 -15.62127,3.24239 -2.68441,13.13899 -4.35139,27.1303 -11.52523,38.729 -0.88312,1.3246 -3.22214,2.25899 -4.38148,0.7389 z m 3.49142,-49.40792 c 9.4276,-5.99048 22.62925,-0.34948 31.09374,-6.93311 2.14109,-8.94478 0.97055,-23.71413 -10.68962,-24.74092 -17.20067,-0.35942 -31.62777,16.70231 -30.58193,33.41069 1.86823,3.65257 7.27705,-1.6237 10.17781,-1.73666 z"
           id="path3018"
           inkscape:connector-curvature="0" />
        <path
           style="fill:#aaaaaa;fill-opacity:1;stroke:none"
           d="m 340.33198,747.18698 c -39.24913,-3.59679 -74.67927,-31.61527 -87.28875,-68.94646 -11.06621,-30.71222 -6.30392,-66.49353 12.29578,-93.32395 21.0652,-31.56898 60.60455,-49.34031 98.21545,-44.13634 37.11366,3.95173 70.67794,29.74366 83.97751,64.63589 17.11648,41.78819 2.98552,94.02281 -33.4529,120.96069 -20.78138,15.99721 -47.7197,23.25618 -73.74709,20.81017 z m 35.51986,-5.32222 c 25.86951,-6.37852 47.49593,-24.50453 61.93501,-46.44139 8.73812,-14.62341 14.12368,-31.47851 13.16943,-48.64541 0.38902,-13.70286 0.11055,-27.77311 -5.85359,-40.43211 -14.68601,-38.17082 -54.22366,-64.78169 -95.10321,-64.07741 -28.97523,-0.043 -57.37475,13.37569 -75.95383,35.58598 -29.20793,32.14118 -32.43116,83.73332 -8.83893,119.93868 15.27105,24.0363 41.22888,41.72654 69.57396,45.64843 13.6383,0.80163 27.61258,1.03738 41.07116,-1.57677 z M 362.4652,730.85775 c 3.76368,-13.73025 10.51272,-27.06901 10.6308,-41.51472 -1.94846,-8.18545 -10.42258,-0.7933 -15.30261,0.64117 -3.37521,13.44335 -5.88189,28.12775 -15.56182,38.60786 -7.7554,3.92103 3.02025,-10.84285 3.52782,-14.36142 7.50635,-15.30794 5.41801,-33.04365 11.4896,-48.68234 3.00094,-9.49009 17.07605,-16.24209 11.68782,-27.31319 -8.258,-29.35472 -32.98939,-49.04868 -48.74074,-74.03514 -6.48594,-12.93347 11.11,-3.22642 13.03328,3.10373 16.00209,20.48375 29.99522,42.83996 39.7512,66.98054 0.20335,15.44753 17.94781,7.04322 24.53827,16.72569 7.52357,12.40485 3.66631,27.89755 1.02737,41.20869 -3.44652,12.73727 -6.06383,26.20388 -12.93616,37.60738 -4.51294,-4.83971 4.83776,-17.74724 5.12272,-25.723 3.57318,-8.79182 6.53906,-26.05673 -8.72248,-21.59746 -6.4897,7.4582 -4.28941,21.63016 -8.66414,31.37566 -2.55533,5.18243 -3.29112,18.02095 -10.88093,16.97655 z m 0.84982,-48.54173 c 9.77284,-5.27068 21.09822,-4.48302 31.69326,-5.79932 5.53227,-6.80086 3.87735,-21.40585 -4.37576,-26.1777 -10.04486,-3.31536 -21.24954,2.87086 -27.58457,10.55599 -3.74111,6.21585 -11.5816,17.6272 -5.0743,23.34441 1.89312,-0.28885 3.64074,-1.09029 5.34137,-1.92338 z"
           id="path3016"
           inkscape:connector-curvature="0" />
        <path
           style="fill:#aaaaaa;fill-opacity:1;stroke:none"
           d="m 330.4652,745.74161 c -33.81896,-6.86472 -63.31223,-31.29886 -75.86695,-63.50897 -5.04152,-11.0899 -7.30079,-23.16627 -6.54057,-35.32402 -0.21859,-12.75261 -0.4067,-25.85665 4.99811,-37.73702 10.55338,-30.43935 35.96429,-54.82103 66.64148,-64.50948 15.07721,-5.8628 31.56919,-3.44621 47.33827,-3.55102 20.49063,2.92192 39.8443,13.03969 55.06133,26.94683 16.22795,15.37229 27.49609,36.16356 31.37506,58.16546 0.24324,13.71027 1.52693,27.7261 -1.1283,41.26282 -8.07233,31.98843 -31.10441,60.15823 -62.06712,72.29321 -12.83288,6.00723 -26.99896,7.53481 -41.00952,7.14021 -6.27297,0.002 -12.62859,0.10626 -18.80179,-1.17802 z m 43.5,-3.4357 c 41.36197,-9.54511 75.40457,-47.60822 77.40888,-90.41784 1.01045,-16.83811 -0.67714,-34.04074 -7.95404,-49.46175 -15.67791,-35.49699 -52.99228,-61.10206 -92.19341,-60.0705 -34.51441,-1.14499 -67.68691,18.28854 -86.17864,47.00655 -19.81137,30.22587 -20.37848,71.48794 -3.30002,103.00996 17.2441,30.60492 50.77866,52.50312 86.42059,51.93612 8.62066,0.13297 17.35281,-0.11039 25.79664,-2.00254 z m -11.5,-11.37767 c 4.20698,-13.73251 10.99652,-27.43258 10.56829,-42.04618 -6.99386,-9.53869 -19.72791,5.24114 -18.62836,14.37158 -3.04044,9.72496 -5.72255,22.00574 -15.55735,27.03021 3.26457,-10.77316 10.99789,-21.49743 12.35468,-33.4797 2.65513,-13.54446 1.95924,-28.63056 11.50633,-39.75997 10.75058,-8.24224 7.22886,-21.4867 1.56738,-31.66728 -10.94629,-23.67678 -31.88579,-40.60836 -44.89019,-62.94447 -3.11715,-11.39691 12.08573,1.13557 14.13382,5.5298 16.12564,20.26771 30.25217,42.55716 39.48678,66.83366 0.11978,15.72728 18.21455,6.29075 24.58242,16.45129 6.04297,11.02249 3.92144,24.72852 1.98693,36.66081 -3.55078,14.28209 -6.95559,29.02543 -14.10445,41.97609 -4.1081,-3.60416 4.43669,-16.48944 4.76901,-23.51821 0.91795,-7.59473 9.86437,-23.55034 -3.1462,-23.98306 -12.67787,-1.15603 -8.48926,16.39457 -12.12699,24.28982 -2.9764,8.03947 -3.10458,22.22149 -12.5021,24.25561 l 0,0 z m 2.12557,-49.05857 c 9.91808,-4.73921 21.04683,-4.77738 31.79734,-4.63027 3.00609,-8.95198 3.20248,-21.26963 -5.34832,-27.11486 -14.18832,-3.67416 -29.29362,7.00451 -33.41621,20.6001 -3.02276,6.90726 -4.21111,18.55925 6.96719,11.14503 z"
           id="path3014"
           inkscape:connector-curvature="0" />
        <path
           style="fill:#aaaaaa;fill-opacity:1;stroke:none"
           d="m 332.9652,746.13578 c -26.36667,-5.11991 -50.85811,-19.94017 -66.27072,-42.14257 -12.78113,-17.26994 -19.91327,-38.69758 -18.72928,-60.25381 -1.69822,-27.26699 10.47283,-54.28961 29.94346,-73.05654 18.76693,-19.47063 45.78955,-31.64168 73.05654,-29.94346 27.26699,-1.69822 54.28961,10.47283 73.05654,29.94346 19.47063,18.76693 31.64168,45.78955 29.94346,73.05654 1.69822,27.26699 -10.47283,54.28961 -29.94346,73.05654 -18.55066,19.3744 -45.18692,31.15729 -72.16143,30.03755 -6.29738,0.0115 -12.6391,0.11707 -18.89511,-0.69771 z m 39.51924,-3.40043 c 37.87847,-7.90697 69.35472,-39.30542 77.27841,-77.18015 10.46989,-44.16675 -13.02968,-93.63103 -54.13338,-113.0588 -25.53861,-12.7143 -56.43888,-14.44927 -82.76698,-3.02989 -40.00869,15.37735 -66.90327,58.453 -63.61376,101.08833 2.68363,34.74288 23.74554,67.7375 55.3102,83.07812 17.44999,9.56941 37.70776,12.9507 57.39138,10.51783 3.52598,-0.34374 7.05652,-0.72513 10.53413,-1.41544 z m -9.25683,-12.06688 c 2.96875,-13.74974 10.27368,-26.88342 10.11136,-41.25511 -4.65271,-10.20571 -20.32613,2.21757 -18.34413,11.46907 -2.8194,10.22732 -5.90746,22.22647 -15.14831,28.48108 2.37721,-10.99771 10.31689,-21.03327 11.49573,-32.79067 2.87575,-13.31947 1.43718,-28.47922 11.42366,-39.20258 8.54977,-7.28191 8.82183,-18.43619 3.51263,-27.70378 -10.15761,-26.17256 -33.55697,-43.89241 -47.12313,-67.94919 -0.19432,-11.11862 14.06466,4.87877 16.7974,9.4556 16.19094,21.86835 31.41492,45.19135 39.49769,71.39735 7.12026,5.41148 21.96355,0.51421 24.18673,13.07545 5.31221,22.4394 -3.2723,45.01462 -10.37662,66.04591 -0.28889,4.12192 -7.62383,13.50568 -4.5421,3.65798 3.70714,-12.84644 8.50682,-25.71793 9.62172,-39.07536 -5.14056,-8.88481 -19.43933,-3.14779 -16.81096,7.46518 -2.44913,12.52916 -4.31789,26.10877 -11.91889,36.69508 -0.5645,0.61654 -1.74496,1.01507 -2.38278,0.23399 z m 5.23759,-50.05175 c 8.28747,-6.39809 24.12442,1.89792 29.01373,-7.00962 3.43918,-9.9284 -1.3867,-27.61458 -14.77289,-24.05982 -15.78421,1.51892 -28.29723,17.53691 -27.01599,33.07512 2.77546,3.4891 9.26655,-1.52677 12.77515,-2.00568 z"
           id="path3012"
           inkscape:connector-curvature="0" />
        <path
           style="fill:#aaaaaa;fill-opacity:1;stroke:none"
           d="m 332.09067,746.69903 c -41.32936,-7.49656 -76.23964,-42.02384 -83.02251,-83.65148 -7.46531,-39.00583 10.08768,-81.20519 42.98226,-103.42671 34.28047,-24.40732 83.54909,-24.40732 117.82956,0 32.92565,22.24087 50.47407,64.49555 42.9661,103.52949 -6.83088,41.79237 -42.04854,76.4286 -83.63124,83.59059 -12.24988,1.85741 -24.88227,1.89282 -37.12417,-0.0419 z m 33.01093,-1.52837 c 42.54008,-5.5154 78.9105,-40.8471 85.73011,-83.17098 6.60258,-35.53877 -7.81991,-73.82016 -36.19151,-96.21912 -26.18216,-21.95798 -64.01319,-29.16768 -96.2858,-17.61403 -36.73185,12.14282 -64.80261,46.80909 -68.81549,85.34129 -4.3807,35.76133 12.8685,72.63668 42.01355,93.49712 20.9187,15.3858 47.88932,21.87294 73.54914,18.16572 z m -1.6364,-14.36548 c 3.45503,-14.12909 11.43368,-28.0507 9.39301,-42.97048 -11.96063,-5.58746 -19.11697,8.94156 -19.58816,19.28355 -1.90706,7.18287 -7.29105,22.00183 -13.12306,21.93818 6.19656,-13.50501 11.70224,-27.50665 13.12849,-42.43721 0.3927,-11.02613 3.79755,-21.84314 11.18544,-30.23617 9.45214,-7.55224 5.17951,-18.98577 0.97679,-28.13025 -10.92762,-25.43667 -34.09045,-42.91439 -46.7404,-67.23804 2.58073,-7.45491 13.37551,6.14959 16.33563,10.35434 17.18457,22.53111 32.87785,46.98291 40.93226,74.38381 8.17992,0.84044 18.98393,-0.41352 22.70735,8.89558 6.13833,16.62171 0.75252,34.72033 -3.73784,51.12329 -3.13776,8.51926 -4.62603,18.54696 -10.61585,25.47411 0.65415,-7.96625 4.72551,-16.52584 6.47027,-24.77937 2.03572,-8.34854 8.82461,-25.03217 -6.20034,-23.91938 -10.62541,1.91073 -5.87218,17.92104 -9.96811,25.83654 -2.79148,7.59866 -3.6608,19.93674 -10.8685,23.44396 l -0.28698,-1.02246 0,0 z m 7,-49.84504 c 8.09211,-5.3421 24.46567,2.8332 27.60417,-7.80888 1.26258,-8.9065 -0.56577,-23.05767 -12.28558,-22.87308 -16.882,-0.28478 -31.76063,16.67893 -30.36314,33.25264 2.70202,5.38848 10.87907,-2.3224 15.04455,-2.57068 z"
           id="path3010"
           inkscape:connector-curvature="0" />
        <path
           style="fill:#aaaaaa;fill-opacity:1;stroke:none"
           d="m 334.4652,746.73627 c -41.20975,-6.78097 -77.04667,-40.13318 -84.78668,-81.48294 -8.28266,-38.93411 8.11158,-81.78142 40.67785,-104.80437 36.25917,-26.91091 90.41568,-25.85213 125.19451,3.1841 27.75786,21.57371 42.44601,57.99316 38.09027,92.79597 -4.67813,48.75127 -48.89331,90.57454 -98.13114,90.88615 -7.01164,0.26205 -14.07638,0.36885 -21.04481,-0.57891 z m 31.4893,-1.95782 c 45.78409,-6.16238 83.92498,-47.27063 86.27964,-93.47339 3.31802,-41.36876 -21.42107,-83.26229 -59.52357,-99.89857 -27.21117,-12.60513 -59.75271,-12.13799 -86.60182,1.24605 -29.43947,14.49178 -51.25128,43.59519 -55.96793,76.19937 -7.40806,42.15233 16.36486,87.35949 54.72696,106.03877 18.6906,9.62586 40.33465,12.77022 61.08672,9.88777 z m -2.4893,-13.84332 c 3.60938,-14.51696 11.8223,-28.92282 8.83489,-44.23999 -14.35417,-3.8748 -17.69347,11.90604 -19.89609,22.45069 -1.93971,6.33513 -7.1785,19.9971 -12.27396,19.47824 6.82843,-15.23505 13.87871,-31.19934 13.4152,-48.28383 3.42455,10.77755 14.00367,-0.83242 21.49102,-0.69791 8.49933,-3.66179 25.64132,3.47434 23.36457,-11.57886 1.8669,-10.63049 -6.87198,-22.00187 -18.14938,-17.96705 -13.80179,2.53046 -22.39601,15.52713 -25.81215,28.24382 0.63653,-11.81943 9.07418,-20.7248 15.60088,-29.80404 2.0736,-9.46094 -4.11144,-18.87384 -7.76377,-27.42636 -11.69744,-21.69664 -30.86681,-38.16119 -43.33254,-59.33679 2.23696,-8.5085 13.22617,5.632 16.4424,9.75319 16.85438,22.51089 32.10948,46.8644 40.70427,73.814 8.64982,0.6854 20.10269,0.36739 23.12451,10.6412 5.63957,22.14912 -2.80058,44.62837 -9.81397,65.46836 -0.98019,5.52346 -7.06642,13.50539 -3.86119,2.84679 3.5157,-12.33484 8.37138,-24.62996 8.69341,-37.57626 -3.83988,-9.31445 -19.22998,-4.35458 -16.7305,6.27531 -2.52023,13.04269 -4.37789,27.16211 -12.34159,38.18061 -0.32439,1.48644 -2.05315,0.75158 -1.69601,-0.24112 z"
           id="path3008"
           inkscape:connector-curvature="0" />
        <path
           style="fill:#aaaaaa;fill-opacity:1;stroke:none"
           d="m 334.13398,745.70954 c -37.30066,-6.37633 -69.71396,-34.55929 -80.77869,-70.80991 -5.61369,-15.59367 -4.61483,-32.52874 -3.43832,-48.757 6.43719,-38.1406 35.78372,-71.07131 73.00585,-81.68505 14.97264,-4.94328 31.08727,-3.85134 46.56151,-2.79472 38.61913,6.57124 72.0497,36.49824 82.20477,74.43287 4.4667,14.57795 3.38212,30.15748 2.36614,45.14928 -6.80848,39.99961 -38.75282,74.53978 -78.59259,83.17703 -13.52588,2.70708 -27.675,3.48785 -41.32867,1.2875 z m 35.83673,-1.99672 c 33.56295,-5.49757 62.33454,-30.27449 75.97287,-60.97989 15.05158,-36.92172 6.98353,-82.83686 -21.93227,-110.86337 -26.76197,-27.06489 -69.36548,-38.23505 -105.37848,-24.51677 -32.92727,10.6438 -58.49769,39.55452 -66.02461,73.20498 -12.18269,46.40436 15.00607,98.59457 59.2163,116.54912 18.2045,7.78429 38.65971,10.04515 58.14619,6.60593 z m -5.492,-13.85508 c 3.86868,-13.4244 10.14968,-26.60718 9.96025,-40.83123 -5.24756,-10.11601 -20.11285,2.13071 -18.85543,11.64908 -3.13725,9.98187 -5.12415,21.93717 -14.13308,28.47046 1.38377,-8.52306 8.27828,-17.95406 10.0506,-27.48746 3.14497,-4.40917 1.39453,-20.55153 4.10722,-19.50744 1.65474,4.4406 4.81273,2.96167 8.08132,1.04719 9.40847,-5.05591 20.14724,-5.40844 30.5432,-5.70142 9.28258,-4.00106 6.27752,-21.72903 -1.30702,-27.06381 -13.97091,-5.65521 -28.91724,5.56542 -34.25405,18.31331 -1.64281,5.13688 -4.14326,8.18278 -1.47329,0.54414 3.56854,-8.67593 10.02185,-15.65668 15.56495,-23.09613 -3.65263,-17.01997 -11.97292,-32.63131 -23.0806,-45.96598 -10.03215,-13.10315 -21.83123,-25.10598 -29.63913,-39.73906 5.01365,-6.43666 14.70641,8.99357 19.07994,13.93518 15.6972,21.53818 29.81767,44.75618 37.86363,70.31482 8.69483,0.1896 19.6054,0.7255 23.07943,10.43171 5.62487,16.79948 -0.28366,34.70485 -4.85186,51.08327 -2.73542,6.59475 -5.37184,21.23104 -9.65707,22.40008 2.80648,-14.06186 9.55906,-27.41064 9.67905,-41.95568 -2.61067,-9.47739 -19.20019,-5.96447 -16.57796,5.03109 -2.70481,12.81603 -4.50361,26.4335 -11.40494,37.78461 -0.63717,0.84878 -1.98563,1.00453 -2.77516,0.34327 z"
           id="path3006"
           inkscape:connector-curvature="0" />
        <path
           style="fill:#aaaaaa;fill-opacity:1;stroke:none"
           d="m 334.4652,746.73209 c -43.95911,-6.42321 -81.12673,-44.82471 -85.69952,-89.08071 6.4344,38.37579 34.12122,74.02622 72.46477,84.38359 39.58401,11.94413 86.30711,-1.9871 110.7214,-35.93181 28.56511,-36.89703 27.43993,-93.95238 -4.35027,-128.61099 -15.05745,-17.58152 -36.30958,-28.71641 -58.64246,-33.94273 5.66454,0.30506 15.39513,3.05391 22.16374,5.96284 43.77446,18.31068 72.26325,69.44472 61.0549,116.20162 -9.49193,48.40187 -57.52302,86.52814 -107.1371,82.164 -3.54215,-0.19366 -7.0743,-0.57413 -10.57546,-1.14581 z m 29.35331,-16.95751 c 4.19565,-12.89622 9.76384,-25.70885 10.08766,-39.4746 -10.63682,-9.97817 -23.41551,6.93188 -21.28783,17.72501 -1.24041,5.45607 -2.70299,14.83164 -9.41158,15.32715 7.88163,-11.24458 5.22084,-27.96894 14.29597,-37.68649 11.71633,-7.72372 28.15765,-1.33514 38.96704,-10.71662 7.97586,-9.66812 -1.28956,-27.16765 -13.90275,-25.35843 -10.34855,-0.73798 -16.87392,9.1199 -23.48186,15.55409 6.98297,-9.04667 16.13801,-21.72669 8.8038,-33.12524 -10.69781,-24.71771 -30.80015,-43.37274 -45.85093,-65.27672 8.06145,-10.89357 15.75806,10.13967 20.79467,15.89512 13.90044,19.45912 26.23733,40.47542 32.8273,63.61506 12.59312,-3.721 27.95121,7.97274 25.35692,21.46361 0.49006,20.0996 -6.96198,39.12934 -13.17159,57.89797 -3.66727,-12.30843 9.5999,-22.6176 6.55241,-35.18311 -4.35602,-13.33027 -19.73207,-5.22164 -18.64749,6.15286 -2.3246,11.18591 -0.62994,26.48906 -11.93174,33.19034 z M 247.82016,644.75291 c 0.22131,-7.98657 0.4653,7.5293 0,0 z m 1.27757,-16.5 c 6.31244,-42.7369 42.60593,-79.45827 85.575,-85.25996 -33.16878,6.83018 -64.06975,28.73515 -77.32908,60.49276 -3.3435,6.27959 -7.66132,24.67374 -8.45456,25.05781 l 0.20869,-0.29061 c 0,0 -5e-5,0 -5e-5,0 z m 97.0873,-86.73073 c 7.64667,-1.36387 5.39874,2.01823 0,0 z"
           id="path3004"
           inkscape:connector-curvature="0" />
      </g>
    </g>
  </g>
</svg>
